<?xml version="1.0" standalone="no"?>
<!DOCTYPE svg PUBLIC "-//W3C//DTD SVG 20010904//EN"
 "http://www.w3.org/TR/2001/REC-SVG-20010904/DTD/svg10.dtd">
<svg version="1.0" xmlns="http://www.w3.org/2000/svg"
 width="512.000000pt" height="512.000000pt" viewBox="0 0 512.000000 512.000000"
 preserveAspectRatio="xMidYMid meet">

<g transform="translate(0.000000,512.000000) scale(0.100000,-0.100000)"
fill="#000000" stroke="none">
<path d="M2455 4904 c-304 -33 -568 -153 -776 -351 -432 -413 -523 -1066 -221
-1577 232 -390 646 -626 1102 -626 614 0 1129 421 1255 1028 9 42 19 133 22
202 9 215 -34 416 -132 615 -177 359 -525 621 -915 690 -90 16 -269 26 -335
19z"/>
<path d="M2307 2115 c-253 -41 -499 -138 -702 -275 -102 -69 -139 -101 -243
-203 -291 -286 -464 -654 -501 -1067 -6 -63 -11 -121 -11 -127 0 -10 349 -13
1710 -13 941 0 1710 3 1710 8 0 4 -5 61 -11 127 -35 413 -209 784 -501 1072
-112 110 -144 137 -270 220 -170 112 -377 197 -593 243 -132 29 -455 37 -588
15z"/>
</g>
</svg>
